<svg xmlns="http://www.w3.org/2000/svg" viewBox="0 0 618.88 128.51"><defs><style>.cls-1{fill:#1d1d1b;}</style></defs><title>logo-b</title><g id="Layer_2" data-name="Layer 2"><g id="Layer_1-2" data-name="Layer 1"><path class="cls-1" d="M256.27,102l-11.35,0a.37.37,0,0,0-.39.39l0,12.81,0,.37h0l0,12.52v.39h.78V115.64h11c4.25,0,7.72-3,7.72-6.79S260.52,102,256.27,102Zm0,12.87-11,0V102.77h11c3.78,0,6.94,2.69,6.94,6.09S260.06,114.86,256.27,114.86Z"/><path class="cls-1" d="M291.11,102h.39v.78H273.56v12.09H286.7v.78H273.56v12.09H291.5v.78H273.17a.37.37,0,0,1-.39-.39V102.38a.37.37,0,0,1,.39-.39Z"/><path class="cls-1" d="M320.57,128c-2.6-8.37-4.31-10.68-6.64-12.43,3.74-.47,6.64-3.3,6.64-6.72,0-3.78-3.47-6.87-7.76-6.87l-11.31,0a.37.37,0,0,0-.39.39l0,12.81,0,.37h0l0,12.52v.39h.78V115.64h10.84c2.67,1.81,4.37,3.64,7.1,12.6l.12.27h.82Zm-9.05-13.15h0l-9.68,0V102.77h11c3.82,0,7,2.69,7,6.09s-3.16,6-6.94,6Z"/><path class="cls-1" d="M345.7,108.81v.39h-.78v-.39c0-3.39-3.51-6-7.76-6s-7.76,2.65-7.76,6c0,6,17.17,6,17.13,12.87,0,3.63-4.17,6.83-9.36,6.83s-9.36-3.16-9.36-6.83v-.39h.78v.39c0,3.36,3.9,6,8.58,6s8.58-2.73,8.58-6c0-6.12-17.09-6-17.13-12.87,0-3.71,3.74-6.83,8.54-6.83S345.7,105.11,345.7,108.81Z"/><path class="cls-1" d="M365.44,102c-6.4,0-11.7,5.89-11.7,13.26s5.31,13.26,11.7,13.26,11.7-5.89,11.7-13.26S371.88,102,365.44,102Zm0,25.75c-6,0-10.92-5.58-10.92-12.48s4.92-12.48,10.92-12.48,10.92,5.58,10.92,12.48S371.49,127.74,365.44,127.74Z"/><path class="cls-1" d="M387.49,128.12v.39h-.78V102.38a.4.4,0,0,1,.7-.23l18,24.77,0-24.54V102h.78v.39l0,25.75a.4.4,0,0,1-.7.23l-18-24.77Z"/><path class="cls-1" d="M415,128.28l-.08.23H414l.23-.55,11.31-25.75a.4.4,0,0,1,.7,0L437.58,128l.23.55H437l-.08-.23-11-24.93Z"/><path class="cls-1" d="M445.62,102.38V102h.78v25.75h14.83v.78H446a.37.37,0,0,1-.39-.39Z"/><polygon class="cls-1" points="469.65 102.38 469.65 101.99 470.44 101.99 470.44 102.38 470.44 128.13 470.44 128.51 469.65 128.51 469.65 128.13 469.65 102.38"/><path class="cls-1" d="M479.92,102.77h-.39V102h16.85a.39.39,0,0,1,.31.62l-16.78,25.12h17.59v.78H479.18a.39.39,0,0,1-.31-.62l16.78-25.12Z"/><path class="cls-1" d="M503.13,128.28l-.08.23h-.86l.23-.55,11.31-25.75a.4.4,0,0,1,.7,0L525.76,128l.23.55h-.86l-.08-.23-11-24.93Z"/><path class="cls-1" d="M544,102h-9.79a.37.37,0,0,0-.39.39v25.75a.37.37,0,0,0,.39.39H544c6.13-.51,10.73-6.48,10.1-13.26C554.71,108.46,550.11,102.49,544,102Zm0,25.75h-9.36v-25h9.36c5.7.51,9.91,6.09,9.36,12.44v.08C553.85,121.65,549.64,127.23,543.94,127.74Z"/><path class="cls-1" d="M573.79,102c-6.4,0-11.7,5.89-11.7,13.26s5.31,13.26,11.7,13.26,11.7-5.89,11.7-13.26S580.23,102,573.79,102Zm0,25.75c-6,0-10.92-5.58-10.92-12.48s4.92-12.48,10.92-12.48,10.92,5.58,10.92,12.48S579.84,127.74,573.79,127.74Z"/><path class="cls-1" d="M610.62,108.81v.39h-.78v-.39c0-3.39-3.51-6-7.76-6s-7.76,2.65-7.76,6c0,6,17.17,6,17.13,12.87,0,3.63-4.17,6.83-9.36,6.83s-9.36-3.16-9.36-6.83v-.39h.78v.39c0,3.36,3.9,6,8.58,6s8.58-2.73,8.58-6c0-6.12-17.09-6-17.13-12.87,0-3.71,3.74-6.83,8.54-6.83S610.62,105.11,610.62,108.81Z"/><path class="cls-1" d="M296.37,64.28c-4.64,8.43-16.62,16.37-29.33,16.37-19.06,0-34.34-17.47-34.34-39.1S248,2.44,267,2.44c12.59,0,24.69,7.82,29.08,16.5l.37.61h2.69l-.86-1.83C293.68,8.55,280.61,0,267,0c-20.29,0-36.78,18.45-36.78,41.55S246.76,83.1,267,83.1c13.69,0,26.4-8.68,31.53-17.6l1-1.83h-2.81Z"/><path class="cls-1" d="M347.58,0c-20,0-36.66,18.45-36.66,41.55S327.54,83.1,347.58,83.1s36.66-18.45,36.66-41.55S367.74,0,347.58,0Zm0,80.65c-18.82,0-34.22-17.48-34.22-39.1s15.4-39.1,34.22-39.1,34.22,17.47,34.22,39.1S366.52,80.65,347.58,80.65Z"/><path class="cls-1" d="M462.45,1.22l-.12,76.87L406,.49a1.26,1.26,0,0,0-2.2.73V83.1h2.44V5l56.33,77.6a1.26,1.26,0,0,0,2.2-.73l.12-80.65V0h-2.44Z"/><path class="cls-1" d="M490.56,0a1.15,1.15,0,0,0-1.22,1.22V81.88a1.15,1.15,0,0,0,1.22,1.22H548V80.65H491.78V42.77H533V40.33H491.78V2.44H548V0H490.56Z"/><path class="cls-1" d="M565.23,21.39c0-10.63,11-18.94,24.32-18.94s24.32,8.31,24.32,18.94v1.22h2.44V21.39C616.31,9.78,604.58,0,589.55,0s-26.76,9.78-26.76,21.39c.12,21.39,53.65,21.14,53.65,40.33,0,10.39-12.59,18.94-26.88,18.94-14.66,0-26.88-8.43-26.88-18.94V60.49h-2.44v1.22c0,11.49,12.71,21.39,29.33,21.39,16.25,0,29.33-10,29.33-21.39C619,40.21,565.23,40.21,565.23,21.39Z"/><path class="cls-1" d="M218,81.51c-8.16-26.21-13.51-33.45-20.79-38.95C209,41.1,218,32.22,218,21.51,218,9.65,207.16,0,193.72,0L158.28.12a1.16,1.16,0,0,0-1.22,1.22l-.06,39H124.11L106.71.73a1.26,1.26,0,0,0-2.2,0L87.11,40.34H10.73A10.74,10.74,0,0,0,0,51.07a8.78,8.78,0,0,0,8.78,8.77A7.22,7.22,0,0,0,16,52.63a6,6,0,0,0-6-6,5,5,0,0,0-5,5,4.14,4.14,0,0,0,.24,1.31,2.16,2.16,0,0,0-.17.36A2.2,2.2,0,1,0,7,51.87a2.22,2.22,0,0,1,0-.25,3,3,0,0,1,3-3,4,4,0,0,1,4,4A5.28,5.28,0,0,1,8.78,57.9a6.84,6.84,0,0,1-6.83-6.83,8.79,8.79,0,0,1,8.78-8.78H86.25L69.07,81.39l-.73,1.71H71l.24-.73L88.9,42.28h33.43l17.63,40.08.24.73h2.69l-.73-1.71L125,42.28h32l0,.37H157l-.06,39.22V83.1h2.44V42.77h34c8.35,5.66,13.69,11.4,22.25,39.47l.37.85h2.57ZM89.75,40.34,105.61,4.28l15.86,36.06Zm99.94,0H159.38V2.44h34.34c12,0,21.87,8.43,21.87,19.06s-9.9,18.82-21.75,18.82Z"/></g></g></svg>